<svg xmlns="http://www.w3.org/2000/svg" viewBox="0 0 1000 1000" width="512" height="512">
  <g fill="#4F46E5" transform="translate(0,511) scale(0.1,-0.1)">
    <path d="M4845.7,4776.5c-160.2-49.4-308.5-162.2-423.2-326.3c-47.5-65.3-225.4-399.4-393.5-737.6c-168.1-340.1-348-678.2-401.4-751.4c-203.7-288.7-579.4-607.1-939.3-796.9c-318.4-166.1-466.7-203.7-1233.9-316.4c-729.7-106.8-881.9-144.3-1059.9-259.1c-176-112.7-294.6-318.3-294.6-514.1c0-124.6,73.2-320.3,174-464.7C331.4,529.1,566.7,285.9,851.4,9c535.9-518.1,666.4-674.3,820.6-998.6c181.9-377.7,263-692.1,278.8-1087.6c11.9-249.2,7.9-278.8-108.8-961c-126.6-731.6-134.5-828.5-98.9-1012.4c71.2-352,330.2-547.7,690.1-522c205.6,13.8,328.2,65.3,994.6,415.3c836.4,442.9,955.1,478.5,1576,478.5c622.9,0,735.6-35.6,1595.8-488.4c328.2-172,648.6-332.2,711.9-353.9c63.3-23.7,189.8-45.5,282.8-51.4c193.8-11.9,332.2,27.7,456.8,130.5c134.5,110.7,235.3,371.7,235.3,609c0,47.4-53.4,403.4-120.6,792.9c-116.7,688.1-120.6,711.9-110.7,972.9c19.8,480.5,170.1,943.2,442.9,1374.3c63.3,98.9,249.2,298.6,654.5,702c609,605.1,670.3,682.2,727.7,915.5c87,348-116.7,654.5-518.1,781.1c-75.2,23.7-441,89-810.7,142.4c-755.4,110.7-901.7,146.3-1210.2,306.5c-379.7,197.7-751.4,508.2-965,810.7c-53.4,75.1-233.3,413.3-399.4,749.4c-391.5,792.9-472.6,905.7-737.6,1030.2C5128.5,4796.3,4954.5,4810.1,4845.7,4776.5z M5114.6,4460.1C5282.7,4383,5342,4294,5690.1,3594c178-359.9,367.8-715.8,419.2-790.9c259-365.8,682.2-721.7,1125.1-943.2c338.1-170,474.6-203.7,1269.5-318.3c741.5-106.8,858.2-136.4,986.7-257.1c87-83.1,90.9-91,90.9-201.7c0-205.7-35.6-253.1-648.6-856.2c-450.8-442.9-575.4-579.4-678.2-731.6c-328.3-494.3-510.2-1081.6-510.2-1651.1c0-249.2,11.9-344.1,112.7-921.5c128.5-735.6,136.4-870,63.3-1018.3c-27.7-55.4-75.1-112.7-108.8-132.5c-77.1-47.5-253.1-47.5-387.6-4c-53.4,19.8-365.8,176-696,348c-854.2,450.9-1085.6,520.1-1724.3,520.1c-640.7-2-872-71.2-1712.4-514.1c-324.3-170.1-634.7-326.3-692.1-346c-136.4-47.5-328.2-49.4-405.4-4c-31.6,19.8-81.1,79.1-106.8,132.5c-73.2,148.3-65.2,282.8,63.3,1018.3c98.9,563.5,112.7,678.2,112.7,911.6c2,563.6-183.9,1170.6-510.2,1659c-102.8,154.3-227.4,288.7-678.2,733.6c-622.9,613-672.3,678.2-654.5,874c9.9,89,21.7,112.7,98.9,185.9c124.6,118.6,247.2,150.3,984.7,255.1C1846,1590.9,2198,1650.3,2285,1672c563.6,144.3,1251.7,622.9,1601.7,1113.3c51.4,73.2,245.2,435,427.1,800.8c255.1,512.1,350,684.2,413.3,751.4c81.1,83,215.5,160.2,276.8,160.2C5019.7,4497.7,5069.2,4479.9,5114.6,4460.1z"/>
    <path d="M4887.3,2330.5c-41.5-51.4-41.5-71.2-41.5-988.7V404.5H3950c-874,0-897.7,0-939.3-39.6c-91-87-31.6-255.1,89-259.1c31.6,0,427.1,0,881.9-2c652.5,0,824.6-5.9,818.6-25.7c-5.9-11.9-263-437-571.5-941.3c-601.1-984.7-611-1008.5-512.1-1089.5c57.3-45.5,144.4-45.5,195.8,0c21.8,17.8,272.9,417.2,557.6,883.9C4754.8-600,4992-212.4,5000-204.5c7.9,5.9,263-379.7,567.5-858.2c304.5-478.5,571.5-883.9,593.2-897.7c83.1-59.3,191.8-23.7,225.4,73.2c15.8,49.4,15.8,75.1-4,114.7c-15.8,27.7-286.7,458.8-603.1,955.1C5460.7-321.2,5201.7,90.1,5201.7,96c0,4,429.1,7.9,953.1,7.9l955.1,2l45.5,53.4c55.4,63.3,47.5,156.2-17.8,211.6c-39.5,31.6-116.7,33.6-1008.5,33.6h-967v937.3c0,917.5,0,937.3-41.5,988.7c-31.7,39.6-57.4,51.4-116.7,51.4S4918.9,2370,4887.3,2330.5z"/>
  </g>
</svg>
